<?xml version="1.0" encoding="utf-8"?>
<!-- Generator: Adobe Illustrator 26.0.2, SVG Export Plug-In . SVG Version: 6.00 Build 0)  -->
<svg version="1.1" id="Слой_1" xmlns="http://www.w3.org/2000/svg" xmlns:xlink="http://www.w3.org/1999/xlink" x="0px" y="0px"
	 viewBox="0 0 2500 1059" style="enable-background:new 0 0 2500 1059;" xml:space="preserve">
<style type="text/css">
	.st0{fill:#FFFFFF;}
</style>
<path class="st0" d="M2468.7,394c13.9,0,25.1-11.2,25.2-25c0-0.3,0-0.6,0-1c0.4-13.9-10.5-25.4-24.4-25.8c-0.3,0-0.5,0-0.8,0
	c-13.9-0.1-25.3,11.1-25.4,25c0,0.3,0,0.6,0,0.9C2443.3,383,2454.4,394,2468.7,394z"/>
<path d="M2462,386h-5.4v-35.9h13.7c8.5,0,12.7,3.1,12.7,10.2c0,6.4-4.1,9.2-9.3,9.9l10.2,15.8h-6.1l-9.5-15.5h-6.2V386L2462,386z"/>
<g>
	<path d="M1319.4,880.6c0,0,96-82.3,203-96c0,0-46.6-30.2-112.4-30.2c-373.1,0-578.8,244.1-940.8,244.1
		c-263.3,0-337.3-134.3-337.3-293.4C131.8,463.7,378.6,44,636.5,44c93.3,0,118,87.8,74.1,150.8c0,0-38.4-24.7-60.4-24.7
		c-35.7,0-54.9,32.9-54.9,60.4s38.4,41.1,65.8,41.1c27.5,0,109.7-32.9,109.7-145.4c0-57.6-41.2-126.1-142.7-126.1
		C384.1,0.1,0.1,315.6,0.1,636.5c0,279.8,203,422.4,458,422.4C757.2,1058.9,1127.4,795.5,1319.4,880.6z"/>
	<path d="M1826,148.2c61.2,0,31.1,87.8-13.7,87.8C1749.1,236.1,1772,148.2,1826,148.2L1826,148.2z M2274.8,150l-64.9,17.4
		c0,0,22.8,88.7-43,179.2C2167,346.6,2291.3,261.6,2274.8,150L2274.8,150z M2175.2,457.3c0,0,99.7-21.9,150-138.1h69.4
		c10,0,9.1,7.3,0.9,17.4c-8.3,10-35.7,36.6-35.7,56.6c0,20.1,25.6,88.7,25.6,133.5c0,44.8-26.6,134.4-130.8,134.4
		s-114.2-66.7-114.2-86.9c0-20.1,23.8-47.5,51.2-47.5c27.4,0,35.6,22.9,35.6,35.7s-2.7,34.7-35.6,42.1c0,0,1.8,27.7,39.3,30.1
		c54.9,3.7,134.3-81.3,99.7-228.5C2330.7,406.1,2249.2,472.9,2175.2,457.3L2175.2,457.3z M2437.2,368c0-17.9,14.5-31,31.6-31
		c17.2,0,31.1,13.9,31.1,31.1s-13.9,31.1-31.1,31.1c-17.2,0.3-31.3-13.4-31.6-30.5C2437.2,368.4,2437.2,368.2,2437.2,368z"/>
	<path d="M2087.5,540.5c0,0-87.8,85-145.4,85c-50.6,0-82.2-35.7-61-104.4c44.8-10.8,190-53.7,190-153.4c0-118-249.6,5.5-271.6,181
		c0,0-65.8,71.3-107,71.3c-19.9,0-37-16.9-26.5-54.9c10-36.6,48.5-107.9,115.2-228.1h-77.7c0,0-95.1,170.7-118.8,206.2
		c-57.7,85.9-136.2,83.2-107,12.8l254.2-474.5h-77.7l-123.4,223.1c-37.5,75-37.5,19.2-93.3,19.2c-153.6,0-242.3,196.7-241.3,239.2
		c-11.4,13-48.5,51.6-84.2,51.6c-19.2,0-25.6-21-7.3-51.2c18.3-30.1,96.9-140.8,96.9-180.1c0-39.3-56.6-84.1-168.2-14.6
		c0,0-25.6-39.3-59.4-39.3c-33.8,0-71.3,31.1-94.2,64C856.9,426.2,758.2,609,712.4,609c-38.4,0-15.5-57.6-15.5-57.6l118-220.4h-80.5
		l-12.7,14.6c0,0-41.1-27.4-74.1-27.4c-112.5,0-241.3,142.6-241.3,244.1s107,134.4,208.4,38.4c0,0,22.9,59.2,76.8,59.2
		c16.6,0,43-8.1,64-39.1C817,530,867.1,446.2,897.2,403.2c19.8-28.1,63.8-18.8,49.3,13.7c-21.9,49.3-120.7,235.8-120.7,235.8h74
		c0,0,105.2-191,121.6-224c16.4-32.9,78.6-70.4,78.6-11.8c0,38.4-96,131.6-96,183.7c0,52.1,35.7,60.4,60.4,60.4
		c24,0,61.2-7.9,134.1-71.7c15.2,93.8,99.7,90.5,184.1,8.6c0,0,30.1,142.6,194.7-5.5c0,0,50.3,167.3,219.5-5.5
		c0,0,87.8,216.7,298.9-32.9L2087.5,540.5L2087.5,540.5z M1892.6,486.4c74.2-159.1,148.1-159.1,148.1-123.4h0
		c0,33.6-58.3,101.1-149.8,127.2L1892.6,486.4z M619.9,518.5c-46.6,87.8-89.6,87.8-104.2,87.8s-56.4-15-49.4-58.5
		c24.8-151.8,133.5-192,164.6-192c31.1,0,51.2,20.1,51.2,35.7C682.1,411.6,666.5,430.8,619.9,518.5z M1284.8,598.1
		c-21,0-33.8-15.6-33.8-34.7c0.1-52.1,97.9-199.3,159.1-199.3l0,0c23.8,0,38.4,17.4,38.4,36.5
		C1448.5,464.6,1341.5,598.1,1284.8,598.1z"/>
</g>
</svg>
